<svg xmlns="http://www.w3.org/2000/svg" viewBox="0 0 241.3 167.14"><defs><style>.cls-1{fill:#7f6b65;}.cls-2{fill:#82d0f5;}</style></defs><title>lc_logo</title><g id="Warstwa_2" data-name="Warstwa 2"><g id="Calque_1" data-name="Calque 1"><path class="cls-1" d="M241.3.17a57.89,57.89,0,0,0-23.13,4.68,59.69,59.69,0,0,0-31.73,31.63,57.79,57.79,0,0,0-4.67,23.22,58,58,0,0,0,4.67,23.13,59.54,59.54,0,0,0,31.73,31.72,57.89,57.89,0,0,0,23.13,4.68Z"/><polygon class="cls-1" points="58.32 118.89 58.32 119.23 106.66 119.23 106.66 119.13 126.35 84.76 146.05 119.23 194.39 119.23 126.35 0.17 58.32 118.89"/><rect class="cls-1" width="46.94" height="119.23"/><polygon class="cls-2" points="106.65 34.54 106.65 34.63 146.05 34.63 126.35 0.17 106.65 34.54"/><polygon class="cls-1" points="58.32 0 58.32 0.1 78.01 34.47 97.71 0 58.32 0"/><path class="cls-1" d="M0,166.74V131H7.17v29.33H16.5v6.43Z"/><path class="cls-1" d="M16.41,143.39V131h7.13v7.13Z"/><path class="cls-1" d="M39.91,166.74l-1.16-5.58H30.52l-1.16,5.58H21.93L31.12,131h7l9.19,35.76Zm-5.27-25.26-2.77,13.26H37.4Z"/><path class="cls-1" d="M67.68,164.18a10,10,0,0,1-7.43,3,10,10,0,0,1-7.43-3,9.83,9.83,0,0,1-2.66-7V131h7.13V157.5c0,2.31,1.35,3.21,3,3.21s3-.9,3-3.21V131h7.13v26.17A9.83,9.83,0,0,1,67.68,164.18Z"/><path class="cls-1" d="M87,137.41v29.33H79.89V137.41h-6V131H93v6.43Z"/><path class="cls-1" d="M110.67,166.74l-4.37-13.91h-2.36v13.91H96.81V131H107c7.78,0,9.94,4.07,9.94,10.9,0,3.82-.6,7.23-4.07,9.39l5.23,15.47ZM107,137.41h-3v9h3c2.71,0,2.86-2.46,2.86-4.52S109.67,137.41,107,137.41Z"/><path class="cls-1" d="M122.13,166.74V131H138.6v6.43h-9.34v8.09h8v6.43h-8v8.38h9.34v6.43Z"/><path class="cls-1" d="M167.83,164.58a9.44,9.44,0,0,1-6.93,2.56,9.26,9.26,0,0,1-7.79-3.57c-2.86-3.41-2.66-9.84-2.66-14.66s-.2-11.35,2.66-14.76a9.26,9.26,0,0,1,7.79-3.57,9.48,9.48,0,0,1,6.93,2.56,11.53,11.53,0,0,1,3.16,8h-7.13a6.76,6.76,0,0,0-.55-2.76,2.75,2.75,0,0,0-4.77,0c-.86,1.65-1,6.12-1,10.44s.1,8.79,1,10.45a2.38,2.38,0,0,0,2.36,1.4,2.46,2.46,0,0,0,2.46-1.4,6.84,6.84,0,0,0,.55-2.77H171A11.68,11.68,0,0,1,167.83,164.58Z"/><path class="cls-1" d="M188.37,166.74v-15h-5.93v15h-7.13V131h7.13v14.37h5.93V131h7.13v35.76Z"/><path class="cls-1" d="M201,166.74V131h7.13v35.76Z"/><path class="cls-1" d="M213.68,166.74V131h7.13v29.33h9.34v6.43Z"/><path class="cls-1" d="M234.12,166.74V131h7.14v35.76Z"/></g></g></svg>