<svg version="1.1" xmlns="http://www.w3.org/2000/svg" xmlns:xlink="http://www.w3.org/1999/xlink" x="0px" y="0px" viewBox="0 0 48 48" xml:space="preserve" width="48" height="48"><g class="nc-icon-wrapper" fill="#7c625e"><path data-color="color-2" fill="#7c625e" d="M36,1H12c-0.552,0-1,0.448-1,1v7h26V2C37,1.448,36.552,1,36,1z"></path> <path fill="#7c625e" d="M37,11H11C5.486,11,1,15.486,1,21v15c0,0.553,0.448,1,1,1h7V25c0-0.552,0.448-1,1-1h28c0.552,0,1,0.448,1,1 v12h7c0.552,0,1-0.447,1-1V21C47,15.486,42.514,11,37,11z M36.5,19c-0.828,0-1.5-0.672-1.5-1.5s0.672-1.5,1.5-1.5s1.5,0.672,1.5,1.5 S37.328,19,36.5,19z"></path> <path data-color="color-2" fill="#7c625e" d="M11,26v20c0,0.552,0.448,1,1,1h24c0.552,0,1-0.448,1-1V26H11z M30,41H18 c-0.552,0-1-0.447-1-1s0.448-1,1-1h12c0.552,0,1,0.447,1,1S30.552,41,30,41z M30,34H18c-0.552,0-1-0.447-1-1s0.448-1,1-1h12 c0.552,0,1,0.447,1,1S30.552,34,30,34z"></path></g></svg>